<svg xmlns="http://www.w3.org/2000/svg" xmlns:xlink="http://www.w3.org/1999/xlink" version="1.1" width="256" height="256" viewBox="0 0 256 256" xml:space="preserve">

<defs>
</defs>
<g style="stroke: none; stroke-width: 0; stroke-dasharray: none; stroke-linecap: butt; stroke-linejoin: miter; stroke-miterlimit: 10; fill: none; fill-rule: nonzero; opacity: 1;" transform="translate(1.4065934065934016 1.4065934065934016) scale(2.81 2.81)" >
	<path d="M 45 0 C 20.187 0 0 20.187 0 45 c 0 24.813 20.187 45 45 45 s 45 -20.187 45 -45 C 90 20.187 69.813 0 45 0 z M 49.761 20.349 c 3.32 0 6.011 2.691 6.011 6.011 c 0 3.32 -2.691 6.011 -6.011 6.011 s -6.011 -2.691 -6.011 -6.011 C 43.75 23.041 46.441 20.349 49.761 20.349 z M 36.462 65.525 l 4.47 -16.675 l 0.877 -3.293 c 1.955 -6.45 -7.849 -4.116 -10.438 -2.294 l -0.228 -2.605 c 2.843 -2.219 22.272 -9.593 20.395 -0.91 l -2.247 8.183 l -3.1 11.786 c -1.955 6.45 7.849 4.116 10.437 2.294 l 0.228 2.605 C 54.014 66.834 34.585 74.208 36.462 65.525 z" style="stroke: none; stroke-width: 1; stroke-dasharray: none; stroke-linecap: butt; stroke-linejoin: miter; stroke-miterlimit: 10; fill: rgb(0,215,244); fill-rule: nonzero; opacity: 1;" transform=" matrix(1 0 0 1 0 0) " stroke-linecap="round" />
</g>
</svg>