<svg xmlns="http://www.w3.org/2000/svg" xmlns:xlink="http://www.w3.org/1999/xlink" version="1.1" width="256" height="256" viewBox="0 0 256 256" xml:space="preserve">

<defs>
</defs>
<g style="stroke: none; stroke-width: 0; stroke-dasharray: none; stroke-linecap: butt; stroke-linejoin: miter; stroke-miterlimit: 10; fill: none; fill-rule: nonzero; opacity: 1;" transform="translate(1.4065934065934016 1.4065934065934016) scale(2.81 2.81)" >
	<path d="M 70.968 58.855 v 20.549 v 6.578 c 0 2.219 -1.799 4.019 -4.019 4.019 H 6.067 c -2.219 0 -4.019 -1.799 -4.019 -4.019 V 4.019 C 2.048 1.799 3.848 0 6.067 0 h 60.882 c 2.219 0 4.019 1.799 4.019 4.019 v 5.769 v 4.29 V 58.855 z" style="stroke: none; stroke-width: 1; stroke-dasharray: none; stroke-linecap: butt; stroke-linejoin: miter; stroke-miterlimit: 10; fill: rgb(233,226,242); fill-rule: nonzero; opacity: 1;" transform=" matrix(1 0 0 1 0 0) " stroke-linecap="round" />
	<path d="M 54.604 70.757 l -10.079 -6.827 l 32.857 -48.507 c 0.884 -1.305 2.658 -1.646 3.962 -0.762 l 5.355 3.627 c 1.305 0.884 1.646 2.658 0.762 3.962 L 54.604 70.757 z" style="stroke: none; stroke-width: 1; stroke-dasharray: none; stroke-linecap: butt; stroke-linejoin: miter; stroke-miterlimit: 10; fill: rgb(255,226,122); fill-rule: nonzero; opacity: 1;" transform=" matrix(1 0 0 1 0 0) " stroke-linecap="round" />
	<path d="M 83.388 28.262 l -10.079 -6.827 l 4.073 -6.013 c 0.884 -1.305 2.658 -1.646 3.962 -0.762 l 5.355 3.627 c 1.305 0.884 1.646 2.658 0.762 3.962 L 83.388 28.262 z" style="stroke: none; stroke-width: 1; stroke-dasharray: none; stroke-linecap: butt; stroke-linejoin: miter; stroke-miterlimit: 10; fill: rgb(255,71,85); fill-rule: nonzero; opacity: 1;" transform=" matrix(1 0 0 1 0 0) " stroke-linecap="round" />
	<polygon points="54.6,70.76 41.42,79.37 44.52,63.93 " style="stroke: none; stroke-width: 1; stroke-dasharray: none; stroke-linecap: butt; stroke-linejoin: miter; stroke-miterlimit: 10; fill: rgb(249,249,249); fill-rule: nonzero; opacity: 1;" transform="  matrix(1 0 0 1 0 0) "/>
	<rect x="13.19" y="43.28" rx="0" ry="0" width="14.84" height="13.88" style="stroke: none; stroke-width: 1; stroke-dasharray: none; stroke-linecap: butt; stroke-linejoin: miter; stroke-miterlimit: 10; fill: rgb(152,219,124); fill-rule: nonzero; opacity: 1;" transform=" matrix(1 0 0 1 0 0) "/>
	<rect x="13.19" y="65.31" rx="0" ry="0" width="14.84" height="13.88" style="stroke: none; stroke-width: 1; stroke-dasharray: none; stroke-linecap: butt; stroke-linejoin: miter; stroke-miterlimit: 10; fill: rgb(152,219,124); fill-rule: nonzero; opacity: 1;" transform=" matrix(1 0 0 1 0 0) "/>
	<path d="M 20.734 53.96 c -0.028 0 -0.057 -0.001 -0.085 -0.004 c -0.311 -0.026 -0.591 -0.196 -0.758 -0.459 l -3.027 -4.757 c -0.296 -0.466 -0.159 -1.084 0.307 -1.381 c 0.465 -0.296 1.083 -0.158 1.38 0.307 l 2.324 3.652 l 8.116 -8.922 c 0.372 -0.408 1.005 -0.438 1.413 -0.067 c 0.409 0.372 0.438 1.004 0.067 1.413 l -8.997 9.891 C 21.284 53.842 21.015 53.96 20.734 53.96 z" style="stroke: none; stroke-width: 1; stroke-dasharray: none; stroke-linecap: butt; stroke-linejoin: miter; stroke-miterlimit: 10; fill: rgb(106,97,155); fill-rule: nonzero; opacity: 1;" transform=" matrix(1 0 0 1 0 0) " stroke-linecap="round" />
	<path d="M 47.555 47.771 H 34.969 c -0.552 0 -1 -0.447 -1 -1 s 0.448 -1 1 -1 h 12.586 c 0.553 0 1 0.447 1 1 S 48.107 47.771 47.555 47.771 z" style="stroke: none; stroke-width: 1; stroke-dasharray: none; stroke-linecap: butt; stroke-linejoin: miter; stroke-miterlimit: 10; fill: rgb(106,97,155); fill-rule: nonzero; opacity: 1;" transform=" matrix(1 0 0 1 0 0) " stroke-linecap="round" />
	<path d="M 41.07 54.457 h -6.102 c -0.552 0 -1 -0.447 -1 -1 s 0.448 -1 1 -1 h 6.102 c 0.552 0 1 0.447 1 1 S 41.623 54.457 41.07 54.457 z" style="stroke: none; stroke-width: 1; stroke-dasharray: none; stroke-linecap: butt; stroke-linejoin: miter; stroke-miterlimit: 10; fill: rgb(106,97,155); fill-rule: nonzero; opacity: 1;" transform=" matrix(1 0 0 1 0 0) " stroke-linecap="round" />
	<path d="M 20.734 75.999 c -0.028 0 -0.057 -0.001 -0.085 -0.004 c -0.311 -0.026 -0.591 -0.196 -0.758 -0.459 l -3.027 -4.757 c -0.296 -0.466 -0.159 -1.084 0.307 -1.381 c 0.465 -0.296 1.083 -0.158 1.38 0.307 l 2.324 3.652 l 8.116 -8.922 c 0.372 -0.407 1.005 -0.439 1.413 -0.066 c 0.409 0.371 0.438 1.004 0.067 1.412 l -8.997 9.891 C 21.284 75.881 21.015 75.999 20.734 75.999 z" style="stroke: none; stroke-width: 1; stroke-dasharray: none; stroke-linecap: butt; stroke-linejoin: miter; stroke-miterlimit: 10; fill: rgb(106,97,155); fill-rule: nonzero; opacity: 1;" transform=" matrix(1 0 0 1 0 0) " stroke-linecap="round" />
	<path d="M 52.827 63.524 c -0.193 0 -0.388 -0.056 -0.56 -0.172 c -0.458 -0.31 -0.577 -0.932 -0.268 -1.389 l 22.092 -32.615 c 0.311 -0.457 0.933 -0.576 1.389 -0.267 c 0.458 0.31 0.577 0.932 0.268 1.389 L 53.656 63.085 C 53.463 63.371 53.147 63.524 52.827 63.524 z" style="stroke: none; stroke-width: 1; stroke-dasharray: none; stroke-linecap: butt; stroke-linejoin: miter; stroke-miterlimit: 10; fill: rgb(229,198,112); fill-rule: nonzero; opacity: 1;" transform=" matrix(1 0 0 1 0 0) " stroke-linecap="round" />
	<path d="M 21.312 10.714 h -7.512 c -0.552 0 -1 -0.448 -1 -1 s 0.448 -1 1 -1 h 7.512 c 0.552 0 1 0.448 1 1 S 21.864 10.714 21.312 10.714 z" style="stroke: none; stroke-width: 1; stroke-dasharray: none; stroke-linecap: butt; stroke-linejoin: miter; stroke-miterlimit: 10; fill: rgb(106,97,155); fill-rule: nonzero; opacity: 1;" transform=" matrix(1 0 0 1 0 0) " stroke-linecap="round" />
	<path d="M 17.555 22.623 c -0.552 0 -1 -0.448 -1 -1 V 9.714 c 0 -0.552 0.448 -1 1 -1 s 1 0.448 1 1 v 11.909 C 18.555 22.175 18.107 22.623 17.555 22.623 z" style="stroke: none; stroke-width: 1; stroke-dasharray: none; stroke-linecap: butt; stroke-linejoin: miter; stroke-miterlimit: 10; fill: rgb(106,97,155); fill-rule: nonzero; opacity: 1;" transform=" matrix(1 0 0 1 0 0) " stroke-linecap="round" />
	<path d="M 32.796 22.623 h -6.023 c -0.552 0 -1 -0.448 -1 -1 V 9.714 c 0 -0.552 0.448 -1 1 -1 h 6.023 c 0.552 0 1 0.448 1 1 s -0.448 1 -1 1 h -5.023 v 9.909 h 5.023 c 0.552 0 1 0.448 1 1 S 33.348 22.623 32.796 22.623 z" style="stroke: none; stroke-width: 1; stroke-dasharray: none; stroke-linecap: butt; stroke-linejoin: miter; stroke-miterlimit: 10; fill: rgb(106,97,155); fill-rule: nonzero; opacity: 1;" transform=" matrix(1 0 0 1 0 0) " stroke-linecap="round" />
	<path d="M 30.97 16.668 h -4.197 c -0.552 0 -1 -0.448 -1 -1 s 0.448 -1 1 -1 h 4.197 c 0.552 0 1 0.448 1 1 S 31.522 16.668 30.97 16.668 z" style="stroke: none; stroke-width: 1; stroke-dasharray: none; stroke-linecap: butt; stroke-linejoin: miter; stroke-miterlimit: 10; fill: rgb(106,97,155); fill-rule: nonzero; opacity: 1;" transform=" matrix(1 0 0 1 0 0) " stroke-linecap="round" />
	<path d="M 42.951 22.623 h -3.886 c -0.552 0 -1 -0.448 -1 -1 s 0.448 -1 1 -1 h 3.886 c 0.589 0 1.068 -0.479 1.068 -1.068 v -1.818 c 0 -0.589 -0.479 -1.068 -1.068 -1.068 h -2.164 c -1.692 0 -3.068 -1.376 -3.068 -3.068 v -1.817 c 0 -1.692 1.376 -3.068 3.068 -3.068 h 2.789 c 0.552 0 1 0.448 1 1 s -0.448 1 -1 1 h -2.789 c -0.589 0 -1.068 0.479 -1.068 1.068 V 13.6 c 0 0.589 0.479 1.068 1.068 1.068 h 2.164 c 1.692 0 3.068 1.376 3.068 3.068 v 1.818 C 46.019 21.246 44.643 22.623 42.951 22.623 z" style="stroke: none; stroke-width: 1; stroke-dasharray: none; stroke-linecap: butt; stroke-linejoin: miter; stroke-miterlimit: 10; fill: rgb(106,97,155); fill-rule: nonzero; opacity: 1;" transform=" matrix(1 0 0 1 0 0) " stroke-linecap="round" />
	<path d="M 58.36 10.714 h -7.513 c -0.553 0 -1 -0.448 -1 -1 s 0.447 -1 1 -1 h 7.513 c 0.553 0 1 0.448 1 1 S 58.913 10.714 58.36 10.714 z" style="stroke: none; stroke-width: 1; stroke-dasharray: none; stroke-linecap: butt; stroke-linejoin: miter; stroke-miterlimit: 10; fill: rgb(106,97,155); fill-rule: nonzero; opacity: 1;" transform=" matrix(1 0 0 1 0 0) " stroke-linecap="round" />
	<path d="M 54.604 22.623 c -0.553 0 -1 -0.448 -1 -1 V 9.714 c 0 -0.552 0.447 -1 1 -1 s 1 0.448 1 1 v 11.909 C 55.604 22.175 55.156 22.623 54.604 22.623 z" style="stroke: none; stroke-width: 1; stroke-dasharray: none; stroke-linecap: butt; stroke-linejoin: miter; stroke-miterlimit: 10; fill: rgb(106,97,155); fill-rule: nonzero; opacity: 1;" transform=" matrix(1 0 0 1 0 0) " stroke-linecap="round" />
	<path d="M 58.36 31.183 H 13.799 c -0.552 0 -1 -0.448 -1 -1 s 0.448 -1 1 -1 H 58.36 c 0.553 0 1 0.448 1 1 S 58.913 31.183 58.36 31.183 z" style="stroke: none; stroke-width: 1; stroke-dasharray: none; stroke-linecap: butt; stroke-linejoin: miter; stroke-miterlimit: 10; fill: rgb(106,97,155); fill-rule: nonzero; opacity: 1;" transform=" matrix(1 0 0 1 0 0) " stroke-linecap="round" />
</g>
</svg>